<svg data-v-423bf9ae="" xmlns="http://www.w3.org/2000/svg" viewBox="0 0 247.16165712753278 60" class="font"><!----><!----><!----><g data-v-423bf9ae="" id="76b938d0-43dd-4abf-9dab-848b61c663c2" fill="white" transform="matrix(5.639098067841383,0,0,5.639098067841383,-4.736843535174955,-15.789473605806982)"><path d="M2.94 10.22C2.94 9.41 3.57 8.68 4.41 8.68C5.25 8.68 5.88 9.41 5.88 10.22C5.88 11.03 5.25 11.76 4.41 11.76C3.57 11.76 2.94 11.03 2.94 10.22ZM2.94 13.30L2.94 12.56C3.36 13.19 4.26 13.44 5.05 13.44C6.80 13.44 8.12 11.93 8.12 10.22C8.12 8.51 6.80 6.99 5.05 6.99C4.26 6.99 3.49 7.21 2.94 7.88L2.94 2.80L0.84 2.80L0.84 13.30ZM11.55 13.30L11.55 2.80L9.45 2.80L9.45 13.30ZM13.12 5.01C13.12 5.68 13.66 6.24 14.35 6.24C15.02 6.24 15.58 5.68 15.58 5.01C15.58 4.33 15.02 3.78 14.35 3.78C13.66 3.78 13.12 4.33 13.12 5.01ZM15.40 13.30L15.40 7.13L13.30 7.13L13.30 13.30ZM23.46 9.80C23.46 8.12 22.79 6.99 21.14 6.99C20.33 6.99 19.67 7.35 19.25 7.88L19.25 7.13L17.15 7.13L17.15 13.30L19.25 13.30L19.25 10.22C19.25 9.38 19.77 8.68 20.43 8.68C21.08 8.68 21.36 9.07 21.36 9.80L21.36 13.30L23.46 13.30ZM27.03 10.57L29.20 13.30L31.89 13.30L28.95 10.07L31.61 7.13L29.01 7.13L27.03 9.58L27.03 2.80L24.93 2.80L24.93 13.30L27.03 13.30ZM34.22 9.48C34.22 9.48 34.29 8.33 35.60 8.33C36.88 8.33 36.97 9.48 36.97 9.48ZM38.99 10.08C38.99 8.11 37.44 6.99 35.56 6.99C33.49 6.99 31.96 8.29 31.96 10.22C31.96 12.18 33.43 13.44 35.56 13.44C37.20 13.44 38.51 12.63 38.88 11.00L36.74 11.00C36.72 11.45 36.26 11.94 35.52 11.94C34.69 11.94 34.19 11.19 34.19 10.47L38.98 10.47C38.98 10.35 38.99 10.21 38.99 10.08ZM43.81 8.68C44.13 8.68 44.44 8.78 44.65 9.03L44.67 9.03L44.67 7.13C44.51 7.04 44.23 6.99 44.04 6.99C43.27 6.99 42.74 7.42 42.42 7.88L42.42 7.13L40.32 7.13L40.32 13.30L42.42 13.30L42.42 10.22C42.42 9.48 43.02 8.68 43.81 8.68Z"></path></g><!----><!----></svg>